<?xml version="1.0" standalone="no"?>
<!DOCTYPE svg PUBLIC "-//W3C//DTD SVG 20010904//EN"
 "http://www.w3.org/TR/2001/REC-SVG-20010904/DTD/svg10.dtd">
<svg version="1.0" xmlns="http://www.w3.org/2000/svg"
 width="512.000000pt" height="512.000000pt" viewBox="0 0 512.000000 512.000000"
 preserveAspectRatio="xMidYMid meet">
<metadata>
Created by potrace 1.14, written by Peter Selinger 2001-2017
</metadata>
<g transform="translate(0.000000,512.000000) scale(0.100000,-0.100000)"
fill="#000000" stroke="none">
<path d="M2108 5109 c-113 -26 -232 -123 -291 -238 -42 -81 -54 -123 -62 -225
-6 -85 19 -199 64 -291 39 -78 87 -134 216 -249 l40 -36 -372 0 c-205 0 -375
0 -378 0 -3 0 -31 -12 -62 -26 -69 -30 -131 -88 -164 -152 l-24 -47 -3 -450
c-2 -247 -5 -452 -8 -454 -3 -3 -65 -6 -137 -7 -73 -1 -148 -5 -167 -9 -100
-22 -183 -95 -221 -194 -21 -54 -21 -72 -22 -493 l0 -438 -31 0 c-141 -2 -185
-8 -237 -32 -95 -44 -159 -125 -176 -224 -5 -27 -8 -369 -8 -761 0 -705 0
-712 21 -740 11 -15 32 -31 45 -34 39 -11 4834 -10 4863 1 14 5 33 21 43 37
17 25 18 71 17 768 l-1 740 -25 55 c-33 72 -87 126 -154 157 -44 20 -76 26
-156 29 -55 2 -104 6 -107 9 -4 2 -8 199 -8 437 -1 467 -1 468 -57 556 -30 48
-74 84 -142 113 -43 19 -68 22 -199 23 l-150 1 -2 85 c-2 47 -4 252 -5 455
l-3 370 -25 49 c-13 26 -40 64 -60 83 -32 33 -118 81 -158 88 -9 2 -199 4
-422 4 l-405 1 92 85 c50 47 107 109 127 139 34 51 74 140 82 181 17 89 20
116 18 155 -8 141 -47 245 -128 337 -86 98 -197 150 -321 148 -97 -1 -171 -23
-255 -74 l-63 -38 -66 39 c-36 21 -88 45 -116 54 -59 18 -184 25 -237 13z"/>
</g>
</svg>
